{"title":"Blitz [2011].720p.BRRip.x264.[Dual Audio] [Hindi+English].by K@r","uid":7640639,"size":1119217009,"categoryP":"video","categoryS":"hd___movies","magnet":"?xt=urn:btih:918bc44cf9dd9131cded93f4746cd41ec955baaf&amp;dn=Blitz+%5B2011%5D.720p.BRRip.x264.%5BDual+Audio%5D+%5BHindi%2BEnglish%5D.by+K%40r&amp;tr=udp%3A%2F%2Ftracker.openbittorrent.com%3A80&amp;tr=udp%3A%2F%2Fopen.demonii.com%3A1337&amp;tr=udp%3A%2F%2Ftracker.coppersurfer.tk%3A6969&amp;tr=udp%3A%2F%2Fexodus.desync.com%3A6969","seeders":0,"leechers":1,"uploader":"TeamExD","files":4,"time":1347770638,"description":"Format                                   : Matroska\nFormat version                           : Version 2\nFile size                                : 1.03 GiB\nDuration                                 : 1h 37mn\nOverall bit rate                         : 1 516 Kbps\nMovie name                               : Blitz [2011].720p.BRRip.x264.[Dual Audio] [Hindi+English].by K@rtik [ExD Exclusive]\nCodec ID                                 : V_MPEG4/ISO/AVC\nDuration                                 : 1h 37mn\nBit rate                                 : 909 Kbps\nWidth                                    : 1 280 pixels\nHeight                                   : 544 pixels\nDisplay aspect ratio                     : 2.35:1\nFrame rate                               : 24.000 fps\nStream size                              : 609 MiB (58%)\nTitle                                    : K@rtik\nCodec ID                                 : A_AC3\nDuration                                 : 1h 37mn\nBit rate mode                            : Constant\nBit rate                                 : 224 Kbps\nChannel(s)                               : 2 channels\nChannel positions                        : Front: L R\nSampling rate                            : 48.0 KHz\nStream size                              : 155 MiB (15%)\nTitle                                    : K@rtik\nLanguage                                 : Hindi\nCodec ID                                 : A_AC3\nDuration                                 : 1h 37mn\nBit rate mode                            : Constant\nBit rate                                 : 384 Kbps\nChannel(s)                               : 6 channels\nChannel positions                        : Front: L C R, Side: L R, LFE\nSampling rate                            : 48.0 KHz\nStream size                              : 266 MiB (25%)\nTitle                                    : K@rtik\nLanguage                                 : English &lt;a href=&quot;\nhttp://imageshack.us/a/img706/9756/49833255.png&quot; rel=&quot;nofollow&quot; target=&quot;_NEW&quot;&gt;\nhttp://imageshack.us/a/img706/9756/49833255.png&lt;/a&gt; &lt;a href=&quot;\nhttp://imageshack.us/a/img171/3478/72397456.png&quot; rel=&quot;nofollow&quot; target=&quot;_NEW&quot;&gt;\nhttp://imageshack.us/a/img171/3478/72397456.png&lt;/a&gt; &lt;a href=&quot;\nhttp://imageshack.us/a/img23/8961/98842468.png&quot; rel=&quot;nofollow&quot; target=&quot;_NEW&quot;&gt;\nhttp://imageshack.us/a/img23/8961/98842468.png&lt;/a&gt; &lt;a href=&quot;\nhttp://imageshack.us/a/img14/9994/17646851.png&quot; rel=&quot;nofollow&quot; target=&quot;_NEW&quot;&gt;\nhttp://imageshack.us/a/img14/9994/17646851.png&lt;/a&gt; &lt;a href=&quot;\nhttp://imageshack.us/a/img15/260/29228824.png&quot; rel=&quot;nofollow&quot; target=&quot;_NEW&quot;&gt;\nhttp://imageshack.us/a/img15/260/29228824.png&lt;/a&gt; &lt;a href=&quot;\nhttp://imageshack.us/a/img853/2581/89319021.png&quot; rel=&quot;nofollow&quot; target=&quot;_NEW&quot;&gt;\nhttp://imageshack.us/a/img853/2581/89319021.png&lt;/a&gt; &lt;a href=&quot;\nhttp://imageshack.us/a/img832/4118/56186205.png&quot; rel=&quot;nofollow&quot; target=&quot;_NEW&quot;&gt;\nhttp://imageshack.us/a/img832/4118/56186205.png&lt;/a&gt; &lt;a href=&quot;\nhttp://imageshack.us/a/img42/9874/35788150.png&quot; rel=&quot;nofollow&quot; target=&quot;_NEW&quot;&gt;\nhttp://imageshack.us/a/img42/9874/35788150.png&lt;/a&gt; &lt;a href=&quot;\nhttp://imageshack.us/a/img827/2383/68774268.png&quot; rel=&quot;nofollow&quot; target=&quot;_NEW&quot;&gt;\nhttp://imageshack.us/a/img827/2383/68774268.png&lt;/a&gt; &lt;a href=&quot;\nhttp://imageshack.us/a/img585/8346/20080550.png&quot; rel=&quot;nofollow&quot; target=&quot;_NEW&quot;&gt;\nhttp://imageshack.us/a/img585/8346/20080550.png&lt;/a&gt; &lt;a href=&quot;\nhttp://imageshack.us/a/img853/1292/56899747.png&quot; rel=&quot;nofollow&quot; target=&quot;_NEW&quot;&gt;\nhttp://imageshack.us/a/img853/1292/56899747.png&lt;/a&gt;\n\n","torrent":{"xt":"urn:btih:918bc44cf9dd9131cded93f4746cd41ec955baaf","amp;dn":"Blitz+%5B2011%5D.720p.BRRip.x264.%5BDual+Audio%5D+%5BHindi%2BEnglish%5D.by+K%40r","amp;tr":["udp%3A%2F%2Ftracker.openbittorrent.com%3A80","udp%3A%2F%2Fopen.demonii.com%3A1337","udp%3A%2F%2Ftracker.coppersurfer.tk%3A6969","udp%3A%2F%2Fexodus.desync.com%3A6969"],"infoHash":"918bc44cf9dd9131cded93f4746cd41ec955baaf","infoHashBuffer":{"type":"Buffer","data":[145,139,196,76,249,221,145,49,205,237,147,244,116,108,212,30,201,85,186,175]},"announce":[],"urlList":[]}}